<?xml version="1.0" ?>
<!DOCTYPE svg  PUBLIC '-//W3C//DTD SVG 1.1//EN'  'http://www.w3.org/Graphics/SVG/1.1/DTD/svg11.dtd'>
<!-- Uploaded to: SVG Repo, www.svgrepo.com, Generator: SVG Repo Mixer Tools -->
<svg width="800px" height="800px" viewBox="0 0 24 24" enable-background="new 0 0 24 24" version="1.1" xml:space="preserve" xmlns="http://www.w3.org/2000/svg" xmlns:xlink="http://www.w3.org/1999/xlink">
<g id="Layer_27"/>
<g id="Layer_2"/>
<g id="Layer_3"/>
<g id="Layer_4"/>
<g id="Layer_5">
<g>
<path d="M13,14v4c0,0.55-0.45,1-1,1s-1-0.45-1-1v-4c0-0.55,0.45-1,1-1S13,13.45,13,14z" fill="#346EA1"/>
</g>
<g>
<path d="M8,10.9844H7c-2.7568,0-5-2.2432-5-5V5.0156c0-0.5527,0.4478-1,1-1h5c0.5522,0,1,0.4473,1,1v4.9688    C9,10.5371,8.5522,10.9844,8,10.9844z M4,6.0156c0.0171,1.6396,1.356,2.9688,3,2.9688V6.0156H4z" fill="#FFBF42"/>
</g>
<g>
<path d="M8,11H7c-2.7568,0-5-2.2432-5-5V5c0-0.5527,0.4478-1,1-1h5c0.5522,0,1,0.4473,1,1v5    C9,10.5527,8.5522,11,8,11z M4,6c0,1.6543,1.3457,3,3,3V6H4z" fill="#FFBF42"/>
</g>
<g>
<path d="M17,11h-1c-0.5522,0-1-0.4473-1-1V5c0-0.5527,0.4478-1,1-1h5c0.5522,0,1,0.4473,1,1v1    C22,8.7568,19.7568,11,17,11z M17,6v3c1.6543,0,3-1.3457,3-3H17z" fill="#FFBF42"/>
</g>
<g>
<path d="M17,19v2c0,0.55-0.45,1-1,1H8c-0.55,0-1-0.45-1-1v-2c0-1.1,0.9-2,2-2h6C16.1,17,17,17.9,17,19z" fill="#346EA1"/>
</g>
<g>
<path d="M17,3v7c0,1.78-0.96,3.44-2.5,4.33C13.73,14.77,12.87,15,12,15s-1.73-0.23-2.5-0.67    C7.96,13.44,7,11.78,7,10V3c0-0.55,0.45-1,1-1h8C16.55,2,17,2.45,17,3z" fill="#E75D4D"/>
</g>
</g>
<g id="Layer_6"/>
<g id="Layer_7"/>
<g id="Layer_8"/>
<g id="Layer_9"/>
<g id="Layer_10"/>
<g id="Layer_11"/>
<g id="Layer_12"/>
<g id="Layer_13"/>
<g id="Layer_14"/>
<g id="Layer_15"/>
<g id="Layer_16">
<g id="Layer_17"/>
</g>
<g id="Layer_18"/>
<g id="Layer_19"/>
<g id="Layer_20"/>
<g id="Layer_21"/>
<g id="Layer_22"/>
<g id="Layer_23"/>
<g id="Layer_24"/>
<g id="Layer_25"/>
<g id="Layer_26"/>
</svg>